<svg xmlns="http://www.w3.org/2000/svg" version="1.1" xmlns:xlink="http://www.w3.org/1999/xlink" width="72" height="69"><svg width="72" height="69" viewBox="0 0 72 69" fill="none" xmlns="http://www.w3.org/2000/svg">
<path d="M35.8086 0C40.9284 2.14569e-05 45.6321 0.863927 49.9199 2.5918C54.2719 4.25579 58.0481 6.65602 61.248 9.79199C64.512 12.864 67.0083 16.4797 68.7363 20.6396C69.8689 23.2687 70.6429 26.0642 71.0596 29.0256C71.1209 29.4616 70.8797 29.8819 70.4767 30.0591L63.1958 33.2597C62.5414 33.5474 61.8038 33.0751 61.7553 32.3619C61.5551 29.4141 60.907 26.6587 59.8086 24.0957C58.5286 20.9597 56.7039 18.2395 54.3359 15.9355C52.032 13.5677 49.2799 11.7438 46.0801 10.4639C42.9442 9.18395 39.5204 8.54397 35.8086 8.54395C32.0327 8.54395 28.5447 9.18393 25.3447 10.4639C22.2089 11.7438 19.4568 13.5677 17.0889 15.9355C14.7209 18.2395 12.8645 20.9597 11.5205 24.0957C10.2405 27.2317 9.60059 30.6562 9.60059 34.3682C9.60063 38.08 10.2406 41.5038 11.5205 44.6396C12.8645 47.7756 14.7209 50.5275 17.0889 52.8955C19.4568 55.1995 22.2088 56.9915 25.3447 58.2715C28.5447 59.5514 32.0327 60.1914 35.8086 60.1914C39.5204 60.1914 42.9442 59.5514 46.0801 58.2715C49.28 56.9915 52.032 55.1995 54.3359 52.8955C56.7039 50.5275 58.5286 47.7756 59.8086 44.6396C59.9191 44.3818 60.0249 44.1219 60.1262 43.8602C60.2244 43.6065 60.4171 43.4001 60.666 43.2907L69.6018 39.3629C70.3069 39.0529 71.0787 39.623 70.9567 40.3836C70.5219 43.0961 69.7826 45.6669 68.7363 48.0957C67.0083 52.2557 64.512 55.904 61.248 59.04C58.0481 62.1119 54.2718 64.5123 49.9199 66.2402C45.6321 67.9041 40.9283 68.7353 35.8086 68.7354C30.6887 68.7354 25.9208 67.8715 21.5049 66.1436C17.1529 64.4156 13.3768 62.0154 10.1768 58.9434C6.97682 55.8074 4.48047 52.1599 2.68848 48C0.896526 43.8401 4.99374e-05 39.296 0 34.3682C0 29.4402 0.896476 24.8954 2.68848 20.7354C4.48047 16.5755 6.97685 12.9596 10.1768 9.8877C13.3767 6.75179 17.153 4.31976 21.5049 2.5918C25.8568 0.863908 30.6248 0 35.8086 0Z" fill="#2563EB"></path>
<path d="M32.0448 51.9678C30.9402 51.9678 30.0448 51.0723 30.0448 49.9678V17.9678C30.0448 16.8632 30.9402 15.9678 32.0448 15.9678H39.6026C40.7071 15.9678 41.6026 16.8632 41.6026 17.9678V49.9678C41.6026 51.0723 40.7071 51.9678 39.6026 51.9678H32.0448ZM19.2861 39.4888C18.1816 39.4888 17.2861 38.5934 17.2861 37.4888V30.4468C17.2861 29.3422 18.1816 28.4468 19.2861 28.4468H52.2861C53.3907 28.4468 54.2861 29.3422 54.2861 30.4468V37.4888C54.2861 38.5934 53.3907 39.4888 52.2861 39.4888H19.2861Z" fill="#2563EB"></path>
</svg><style>@media (prefers-color-scheme: light) { :root { filter: none; } }
@media (prefers-color-scheme: dark) { :root { filter: contrast(0.3846153846153846) brightness(4.5); } }
</style></svg>