<svg width="376" height="69" viewBox="0 0 376 69" fill="none" xmlns="http://www.w3.org/2000/svg">
<path d="M103.442 0C108.562 2.14569e-05 113.266 0.863927 117.554 2.5918C121.906 4.25579 125.682 6.65602 128.882 9.79199C132.146 12.864 134.642 16.4797 136.37 20.6396C137.503 23.2687 138.277 26.0642 138.693 29.0256C138.755 29.4616 138.514 29.8819 138.11 30.0591L130.83 33.2597C130.175 33.5474 129.438 33.0751 129.389 32.3619C129.189 29.4141 128.541 26.6587 127.442 24.0957C126.162 20.9597 124.338 18.2395 121.97 15.9355C119.666 13.5677 116.914 11.7438 113.714 10.4639C110.578 9.18395 107.154 8.54397 103.442 8.54395C99.6665 8.54395 96.1784 9.18393 92.9785 10.4639C89.8427 11.7438 87.0906 13.5677 84.7227 15.9355C82.3547 18.2395 80.4983 20.9597 79.1543 24.0957C77.8743 27.2317 77.2344 30.6562 77.2344 34.3682C77.2344 38.08 77.8744 41.5038 79.1543 44.6396C80.4983 47.7756 82.3547 50.5275 84.7227 52.8955C87.0906 55.1995 89.8426 56.9915 92.9785 58.2715C96.1785 59.5514 99.6665 60.1914 103.442 60.1914C107.154 60.1914 110.578 59.5514 113.714 58.2715C116.914 56.9915 119.666 55.1995 121.97 52.8955C124.338 50.5275 126.162 47.7756 127.442 44.6396C127.553 44.3818 127.659 44.1219 127.76 43.8602C127.858 43.6065 128.051 43.4001 128.3 43.2907L137.236 39.3629C137.941 39.0529 138.712 39.623 138.591 40.3836C138.156 43.0961 137.416 45.6669 136.37 48.0957C134.642 52.2557 132.146 55.904 128.882 59.04C125.682 62.1119 121.906 64.5123 117.554 66.2402C113.266 67.9041 108.562 68.7353 103.442 68.7354C98.3225 68.7354 93.5546 67.8715 89.1387 66.1436C84.7867 64.4156 81.0105 62.0154 77.8105 58.9434C74.6106 55.8074 72.1143 52.1599 70.3223 48C68.5303 43.8401 67.6338 39.296 67.6338 34.3682C67.6338 29.4402 68.5303 24.8954 70.3223 20.7354C72.1143 16.5755 74.6106 12.9596 77.8105 9.8877C81.0105 6.75179 84.7868 4.31976 89.1387 2.5918C93.4906 0.863908 98.2585 0 103.442 0Z" fill="white"/>
<path d="M9.59961 28.6641C9.59961 29.2163 10.0473 29.6641 10.5996 29.6641H47.1924C47.7447 29.6641 48.1924 29.2163 48.1924 28.6641V1.76758C48.1924 1.21529 48.6401 0.767578 49.1924 0.767578H56.792C57.3443 0.767578 57.792 1.21529 57.792 1.76758V66.9678C57.792 67.5201 57.3443 67.9678 56.792 67.9678H49.1924C48.6401 67.9678 48.1924 67.5201 48.1924 66.9678V39.0156C48.1924 38.4633 47.7447 38.0156 47.1924 38.0156H10.5996C10.0473 38.0156 9.59961 38.4633 9.59961 39.0156V66.9678C9.59961 67.5201 9.15189 67.9678 8.59961 67.9678H1C0.447715 67.9678 0 67.5201 0 66.9678V1.76758C0 1.21529 0.447715 0.767578 1 0.767578H8.59961C9.15189 0.767578 9.59961 1.21529 9.59961 1.76758V28.6641Z" fill="white"/>
<path d="M183.956 46.5127C184.345 47.1676 185.293 47.1649 185.679 46.5079L212.194 1.26198C212.373 0.955739 212.701 0.767578 213.056 0.767578H219.357C219.909 0.767578 220.356 1.21443 220.357 1.76615L220.45 66.9663C220.451 67.5192 220.003 67.9678 219.45 67.9678H212.234C211.682 67.9678 211.235 67.5212 211.234 66.9696L211.152 22.5882C211.15 21.573 209.812 21.2063 209.293 22.0789L187.142 59.3188C186.962 59.6219 186.635 59.8076 186.283 59.8076H183.002C182.651 59.8076 182.325 59.6231 182.144 59.3216L160.005 22.3703C159.484 21.5 158.147 21.8697 158.147 22.8843V66.9678C158.147 67.5201 157.7 67.9678 157.147 67.9678H149.932C149.379 67.9678 148.932 67.5201 148.932 66.9678V1.76758C148.932 1.21529 149.379 0.767578 149.932 0.767578H156.233C156.586 0.767578 156.913 0.95364 157.093 1.25715L183.956 46.5127Z" fill="white"/>
<path d="M245.419 66.9678C245.419 67.5201 244.971 67.9678 244.419 67.9678H236.818C236.266 67.9678 235.818 67.5201 235.818 66.9678V1.76758C235.818 1.21529 236.266 0.767578 236.818 0.767578H244.419C244.971 0.767578 245.419 1.21529 245.419 1.76758V66.9678Z" fill="white"/>
<path d="M307.151 48.6317C307.743 49.3667 308.93 48.9482 308.93 48.0045V1.76758C308.93 1.21529 309.377 0.767578 309.93 0.767578H317.529C318.082 0.767578 318.529 1.21529 318.529 1.76758V66.9678C318.529 67.5201 318.082 67.9678 317.529 67.9678H311.136C310.833 67.9678 310.547 67.8307 310.357 67.5949L272.117 20.1038C271.525 19.3687 270.338 19.7872 270.338 20.7309V66.9678C270.338 67.5201 269.89 67.9678 269.338 67.9678H261.737C261.185 67.9678 260.737 67.5201 260.737 66.9678V1.76758C260.737 1.21529 261.185 0.767578 261.737 0.767578H268.131C268.433 0.767578 268.72 0.904661 268.91 1.1404L307.151 48.6317Z" fill="white"/>
<path d="M358.708 27.5117C358.708 28.064 359.156 28.5117 359.708 28.5117H374.412C374.964 28.5117 375.412 28.9594 375.412 29.5117V39.2236C375.412 39.7759 374.964 40.2236 374.412 40.2236H359.708C359.156 40.2236 358.708 40.6713 358.708 41.2236V55.5439C358.708 56.0962 358.26 56.5439 357.708 56.5439H347.323C346.771 56.5439 346.323 56.0962 346.323 55.5439V41.2236C346.323 40.6713 345.876 40.2236 345.323 40.2236H330.716C330.164 40.2236 329.716 39.7759 329.716 39.2236V29.5117C329.716 28.9594 330.164 28.5117 330.716 28.5117H345.323C345.876 28.5117 346.323 28.064 346.323 27.5117V13.1914C346.323 12.6391 346.771 12.1914 347.323 12.1914H357.708C358.26 12.1914 358.708 12.6391 358.708 13.1914V27.5117Z" fill="white"/>
<path d="M99.6785 51.9678C98.574 51.9678 97.6785 51.0723 97.6785 49.9678V17.9678C97.6785 16.8632 98.574 15.9678 99.6785 15.9678H107.236C108.341 15.9678 109.236 16.8632 109.236 17.9678V49.9678C109.236 51.0723 108.341 51.9678 107.236 51.9678H99.6785ZM86.9199 39.4888C85.8154 39.4888 84.9199 38.5934 84.9199 37.4888V30.4468C84.9199 29.3422 85.8154 28.4468 86.9199 28.4468H119.92C121.024 28.4468 121.92 29.3422 121.92 30.4468V37.4888C121.92 38.5934 121.024 39.4888 119.92 39.4888H86.9199Z" fill="white"/>
</svg>
